<?xml version="1.0" encoding="UTF-8" standalone="no" ?>
<!DOCTYPE svg PUBLIC "-//W3C//DTD SVG 1.1//EN" "http://www.w3.org/Graphics/SVG/1.1/DTD/svg11.dtd">
<svg xmlns="http://www.w3.org/2000/svg" xmlns:xlink="http://www.w3.org/1999/xlink" version="1.1" width="1280" height="1024" viewBox="0 0 1280 1024" xml:space="preserve">
<desc>Created with Fabric.js 5.3.0</desc>
<defs>
</defs>
<g transform="matrix(1 0 0 1 640 512)" id="background-logo"  >
<rect style="stroke: none; stroke-width: 0; stroke-dasharray: none; stroke-linecap: butt; stroke-dashoffset: 0; stroke-linejoin: miter; stroke-miterlimit: 4; fill: rgb(0,0,0); fill-rule: nonzero; opacity: 1;"  paint-order="stroke"  x="-640" y="-512" rx="0" ry="0" width="1280" height="1024" />
</g>
<g transform="matrix(1.9211538461538462 0 0 1.9211538461538462 640 358.3965828578157)" id="logo-logo"  >
<g style=""  paint-order="stroke"   >
		<g transform="matrix(0.33042467919473045 0 0 -0.3304246791947305 -0.6742315578967464 31.157890761685877)"  >
<path style="stroke: none; stroke-width: 1; stroke-dasharray: none; stroke-linecap: butt; stroke-dashoffset: 0; stroke-linejoin: miter; stroke-miterlimit: 4; fill: rgb(255,255,255); fill-rule: nonzero; opacity: 1;"  paint-order="stroke"  transform=" translate(-752.7775, -595.7815)" d="M 777.027 558.688 L 793.1990000000001 623.9879999999999 L 724.7460000000001 623.9879999999999 L 708.5780000000001 558.688 z M 734.9920000000001 665.297 L 803.98 665.297 L 825.539 752.8050000000001 L 876.203 752.8050000000001 L 854.105 665.297 L 897.7660000000001 665.297 L 897.7660000000001 623.988 L 843.8670000000001 623.988 L 827.695 558.6880000000001 L 897.7660000000001 558.6880000000001 L 897.7660000000001 517.3790000000001 L 817.4530000000001 517.3790000000001 L 798.051 438.75800000000015 L 747.922 438.75800000000015 L 766.7850000000001 517.3790000000001 L 698.344 517.3790000000001 L 678.9340000000001 438.75800000000015 L 628.8090000000001 438.75800000000015 L 648.215 517.3790000000001 L 607.789 517.3790000000001 L 607.789 558.6880000000001 L 658.453 558.6880000000001 L 674.086 623.988 L 607.789 623.988 L 607.789 665.297 L 684.324 665.297 L 706.43 752.8050000000001 L 757.0899999999999 752.8050000000001 L 734.992 665.297" stroke-linecap="round" />
</g>
		<g transform="matrix(0.33042467919473045 0 0 -0.3304246791947305 -108.0835646879923 36.579664110252565)"  >
<path style="stroke: none; stroke-width: 1; stroke-dasharray: none; stroke-linecap: butt; stroke-dashoffset: 0; stroke-linejoin: miter; stroke-miterlimit: 4; fill: rgb(255,255,255); fill-rule: nonzero; opacity: 1;"  paint-order="stroke"  transform=" translate(-427.71299999999997, -579.373)" d="M 520.18 800.68 L 491.82399999999996 800.68 C 482.36699999999996 800.68 474.352 797.387 467.78099999999995 790.8159999999999 C 461.203 784.6519999999999 457.92199999999997 776.637 457.92199999999997 766.7769999999999 L 457.92199999999997 639.172 C 457.92199999999997 632.59 456.688 626.227 454.22299999999996 620.066 C 451.34 613.484 448.258 608.3480000000001 444.977 604.648 C 441.68399999999997 600.125 437.578 595.809 432.645 591.703 C 428.11699999999996 588.004 423.805 584.9259999999999 419.69899999999996 582.457 C 423.80499999999995 579.992 428.11699999999996 576.906 432.645 573.211 C 437.15999999999997 569.5120000000001 441.277 565.402 444.977 560.8870000000001 C 448.258 556.355 451.34 551.0200000000001 454.22299999999996 544.855 C 456.68799999999993 538.691 457.92199999999997 532.113 457.92199999999997 525.129 L 457.92199999999997 391.35900000000004 C 457.92199999999997 381.91 461.203 374.10200000000003 467.78099999999995 367.934 C 474.352 361.363 482.36699999999996 358.07000000000005 491.82399999999996 358.07000000000005 L 513.4019999999999 358.07000000000005 L 513.4019999999999 297.65600000000006 L 477.6449999999999 297.65600000000006 C 467.3709999999999 297.65600000000006 457.09399999999994 299.72300000000007 446.8239999999999 303.8280000000001 C 436.5469999999999 308.34800000000007 427.9139999999999 314.1020000000001 420.9339999999999 321.08600000000007 C 413.93799999999993 327.2460000000001 408.1909999999999 335.67600000000004 403.6719999999999 346.36300000000006 C 399.5589999999999 356.63300000000004 397.5079999999999 366.91400000000004 397.5079999999999 377.18000000000006 L 397.5079999999999 500.47300000000007 C 397.5079999999999 511.97300000000007 395.86299999999994 520.8130000000001 392.5739999999999 526.9770000000001 C 389.2809999999999 534.3750000000001 384.7659999999999 539.7150000000001 379.0159999999999 543.008 C 373.6719999999999 546.7030000000001 367.0899999999999 549.168 359.2849999999999 550.402 C 351.0589999999999 551.6370000000001 343.05099999999993 552.254 335.2459999999999 552.254 L 335.2459999999999 612.668 C 343.05099999999993 612.668 351.0589999999999 613.2810000000001 359.2849999999999 614.516 C 367.0899999999999 615.742 373.6719999999999 618.2149999999999 379.0159999999999 621.91 C 385.1799999999999 625.6129999999999 389.6989999999999 630.742 392.5739999999999 637.3199999999999 C 395.8629999999999 643.4839999999999 397.5079999999999 652.5229999999999 397.5079999999999 664.449 L 397.5079999999999 780.953 C 397.5079999999999 786.707 398.0229999999999 792.148 399.0469999999999 797.289 C 400.0659999999999 802.4259999999999 401.6129999999999 807.461 403.6719999999999 812.395 C 408.1909999999999 822.254 413.93799999999993 830.672 420.9339999999999 837.664 C 429.1479999999999 845.887 437.7809999999999 851.637 446.8239999999999 854.93 C 455.4529999999999 859.031 465.7269999999999 861.0899999999999 477.6449999999999 861.0899999999999 L 520.18 861.0899999999999 L 520.18 800.68" stroke-linecap="round" />
</g>
		<g transform="matrix(0.33042467919473045 0 0 -0.3304246791947305 108.08306905097345 36.579664110252565)"  >
<path style="stroke: none; stroke-width: 1; stroke-dasharray: none; stroke-linecap: butt; stroke-dashoffset: 0; stroke-linejoin: miter; stroke-miterlimit: 4; fill: rgb(255,255,255); fill-rule: nonzero; opacity: 1;"  paint-order="stroke"  transform=" translate(-1081.9215, -579.373)" d="M 989.453 861.09 L 1031.99 861.09 C 1043.9 861.09 1054.18 859.0310000000001 1062.81 854.9300000000001 C 1071.84 851.6370000000001 1080.48 845.8870000000001 1088.7 837.6640000000001 C 1095.68 830.6720000000001 1101.43 822.2540000000001 1105.96 812.3950000000001 C 1108.01 807.4610000000001 1109.55 802.426 1110.58 797.2890000000001 C 1111.6 792.1480000000001 1112.12 786.7070000000001 1112.12 780.9530000000001 L 1112.12 664.449 C 1112.12 652.5229999999999 1113.77 643.4839999999999 1117.06 637.3199999999999 C 1119.9299999999998 630.742 1124.45 625.6129999999999 1130.62 621.91 C 1135.9599999999998 618.2149999999999 1142.54 615.742 1150.35 614.516 C 1158.1499999999999 613.281 1166.1599999999999 612.668 1174.3899999999999 612.668 L 1174.3899999999999 552.254 C 1166.1599999999999 552.254 1158.1499999999999 551.6370000000001 1150.35 550.402 C 1142.54 549.168 1135.9599999999998 546.7030000000001 1130.62 543.008 C 1124.86 539.715 1120.34 534.375 1117.06 526.9770000000001 C 1113.77 520.8130000000001 1112.12 511.97300000000007 1112.12 500.47300000000007 L 1112.12 377.18 C 1112.12 366.914 1110.07 356.633 1105.9599999999998 346.363 C 1101.4299999999998 335.676 1095.6799999999998 327.246 1088.6999999999998 321.086 C 1081.7099999999998 314.10200000000003 1073.08 308.348 1062.8099999999997 303.82800000000003 C 1052.5299999999997 299.723 1042.2599999999998 297.656 1031.9899999999998 297.656 L 996.2339999999998 297.656 L 996.2339999999998 358.07 L 1017.8099999999998 358.07 C 1027.2599999999998 358.07 1035.2699999999998 361.363 1041.85 367.93399999999997 C 1048.4199999999998 374.102 1051.7199999999998 381.90999999999997 1051.7199999999998 391.359 L 1051.7199999999998 525.129 C 1051.7199999999998 532.113 1052.9399999999998 538.691 1055.4099999999999 544.855 C 1058.2799999999997 551.02 1061.36 556.355 1064.6599999999999 560.8870000000001 C 1068.36 565.402 1072.4599999999998 569.5120000000001 1076.9899999999998 573.211 C 1081.0899999999997 576.9060000000001 1085.4099999999999 579.992 1089.9299999999998 582.457 C 1085.4099999999999 584.926 1081.09 588.004 1076.9899999999998 591.703 C 1072.0599999999997 595.809 1067.9399999999998 600.125 1064.6599999999999 604.648 C 1061.36 608.3480000000001 1058.2799999999997 613.484 1055.4099999999999 620.066 C 1052.9399999999998 626.227 1051.7199999999998 632.59 1051.7199999999998 639.172 L 1051.7199999999998 766.777 C 1051.7199999999998 776.6370000000001 1048.4199999999998 784.652 1041.85 790.816 C 1035.27 797.3870000000001 1027.26 800.6800000000001 1017.81 800.6800000000001 L 989.453 800.6800000000001 L 989.453 861.09" stroke-linecap="round" />
</g>
		<g transform="matrix(0.33042467919473045 0 0 -0.3304246791947305 -0.4716812295504269 -83.1806131034626)"  >
<path style="stroke: none; stroke-width: 1; stroke-dasharray: none; stroke-linecap: butt; stroke-dashoffset: 0; stroke-linejoin: miter; stroke-miterlimit: 4; fill: rgb(255,255,255); fill-rule: nonzero; opacity: 1;"  paint-order="stroke"  transform=" translate(-753.3905, -941.8165)" d="M 799.008 1082.5 L 707.797 1082.5 L 557.277 801.133 L 636.398 801.133 L 752.699 1048.58 L 873.18 801.133 L 949.5039999999999 801.133 L 799.008 1082.5" stroke-linecap="round" />
</g>
</g>
</g>
<g transform="matrix(1.9211538461538462 0 0 1.9211538461538462 639.6839701923077 715.8102378894739)" id="text-logo"  >
<g style=""  paint-order="stroke"   >
		<g transform="matrix(1 0 0 1 0 0)" id="text-logo-path-0"  >
<path style="stroke: none; stroke-width: 0; stroke-dasharray: none; stroke-linecap: butt; stroke-dashoffset: 0; stroke-linejoin: miter; stroke-miterlimit: 4; fill: rgb(255,255,255); fill-rule: nonzero; opacity: 1;"  paint-order="stroke"  transform=" translate(-195.24, 32.76)" d="M 20.96 0 L 4.14 0 Q 3.76 0 3.76 -0.47 L 3.76 -0.47 L 3.95 -65.05 Q 3.95 -65.42 4.32 -65.42 L 4.32 -65.42 L 22.37 -65.42 Q 27.73 -65.42 31.96 -62.84 Q 36.19 -60.25 38.63 -56.02 Q 41.08 -51.79 41.08 -46.81 L 41.08 -46.81 Q 41.08 -42.77 39.24 -39.29 Q 37.41 -35.81 34.87 -33.65 L 34.87 -33.65 Q 37.6 -30.93 39.1 -27.35 Q 40.61 -23.78 40.61 -19.83 L 40.61 -19.83 Q 40.61 -14.38 37.98 -9.87 Q 35.34 -5.36 30.88 -2.68 Q 26.41 0 20.96 0 L 20.96 0 Z M 15.23 -54.24 L 15.23 -39.48 L 22.37 -39.48 Q 25.66 -39.48 27.68 -41.78 Q 29.7 -44.09 29.7 -46.81 L 29.7 -46.81 Q 29.7 -49.82 27.54 -52.03 Q 25.38 -54.24 22.37 -54.24 L 22.37 -54.24 L 15.23 -54.24 Z M 15.23 -28.11 L 15.13 -11.47 L 20.96 -11.47 Q 24.35 -11.47 26.79 -13.96 Q 29.23 -16.45 29.23 -19.83 L 29.23 -19.83 Q 29.23 -23.22 26.79 -25.66 Q 24.35 -28.11 20.96 -28.11 L 20.96 -28.11 L 15.23 -28.11 Z M 78.11 0 L 47.75 0 Q 47.38 0 47.38 -0.47 L 47.38 -0.47 L 47.47 -64.95 Q 47.47 -65.42 47.94 -65.42 L 47.94 -65.42 L 58.37 -65.42 Q 58.84 -65.42 58.84 -64.95 L 58.84 -64.95 L 58.75 -11.56 L 78.11 -11.56 Q 78.58 -11.56 78.58 -11.09 L 78.58 -11.09 L 78.58 -0.47 Q 78.58 0 78.11 0 L 78.11 0 Z M 100.96 0 L 89.58 0 Q 89.21 0 89.11 -0.47 L 89.11 -0.47 L 76.14 -65.05 Q 76.05 -65.42 76.52 -65.42 L 76.52 -65.42 L 87.14 -65.42 Q 87.51 -65.42 87.61 -65.05 L 87.61 -65.05 L 95.32 -22 L 102.84 -65.05 Q 102.93 -65.42 103.31 -65.42 L 103.31 -65.42 L 113.83 -65.42 Q 114.3 -65.42 114.21 -65.05 L 114.21 -65.05 L 101.43 -0.47 Q 101.33 0 100.96 0 L 100.96 0 Z M 135.17 0.94 L 135.17 0.94 Q 130 0.94 125.82 -1.65 Q 121.64 -4.23 119.19 -8.55 Q 116.75 -12.88 116.75 -18.24 L 116.75 -18.24 L 116.84 -47.56 Q 116.84 -52.73 119.24 -57.01 Q 121.64 -61.29 125.82 -63.87 Q 130 -66.46 135.17 -66.46 L 135.17 -66.46 Q 140.34 -66.46 144.48 -63.92 Q 148.61 -61.38 151.06 -57.1 Q 153.5 -52.83 153.5 -47.56 L 153.5 -47.56 L 153.5 -43.24 Q 153.5 -42.86 153.13 -42.86 L 153.13 -42.86 L 142.6 -42.86 Q 142.22 -42.86 142.22 -43.24 L 142.22 -43.24 L 142.22 -47.56 Q 142.22 -50.67 140.2 -52.92 Q 138.18 -55.18 135.17 -55.18 L 135.17 -55.18 Q 131.79 -55.18 130 -52.88 Q 128.22 -50.57 128.22 -47.56 L 128.22 -47.56 L 128.22 -18.24 Q 128.22 -14.76 130.24 -12.6 Q 132.26 -10.43 135.17 -10.43 L 135.17 -10.43 Q 138.18 -10.43 140.2 -12.83 Q 142.22 -15.23 142.22 -18.24 L 142.22 -18.24 L 142.22 -22.56 Q 142.22 -22.94 142.6 -22.94 L 142.6 -22.94 L 153.22 -22.94 Q 153.6 -22.94 153.6 -22.56 L 153.6 -22.56 L 153.6 -18.24 Q 153.6 -12.88 151.1 -8.55 Q 148.61 -4.23 144.48 -1.65 Q 140.34 0.94 135.17 0.94 Z M 171.46 0 L 160.83 0 Q 160.46 0 160.46 -0.47 L 160.46 -0.47 L 160.65 -64.95 Q 160.65 -65.42 161.02 -65.42 L 161.02 -65.42 L 171.55 -65.42 Q 171.93 -65.42 171.93 -64.95 L 171.93 -64.95 L 171.93 -42.68 L 186.68 -65.05 Q 186.97 -65.42 187.34 -65.42 L 187.34 -65.42 L 198.15 -65.42 Q 198.53 -65.42 198.34 -65.05 L 198.34 -65.05 L 182.08 -39.1 L 200.31 -0.38 Q 200.5 0 199.84 0 L 199.84 0 L 188.38 0 Q 187.91 0 187.81 -0.38 L 187.81 -0.38 L 175.12 -28.01 L 171.83 -22.84 L 171.83 -0.47 Q 171.83 0 171.46 0 L 171.46 0 Z M 216.95 0.94 L 216.95 0.94 Q 211.88 0.94 207.69 -1.65 Q 203.51 -4.23 201.02 -8.51 Q 198.53 -12.78 198.53 -17.95 L 198.53 -17.95 L 198.53 -22.28 Q 198.53 -22.75 199 -22.75 L 199 -22.75 L 209.53 -22.75 Q 209.9 -22.75 209.9 -22.28 L 209.9 -22.28 L 209.9 -17.95 Q 209.9 -14.85 211.97 -12.64 Q 214.04 -10.43 216.95 -10.43 L 216.95 -10.43 Q 219.87 -10.43 221.93 -12.69 Q 224 -14.95 224 -17.95 L 224 -17.95 Q 224 -21.43 219.49 -23.97 L 219.49 -23.97 Q 217.99 -24.82 214.79 -26.6 Q 211.59 -28.39 208.77 -29.99 L 208.77 -29.99 Q 203.6 -32.99 201.11 -37.55 Q 198.62 -42.11 198.62 -47.85 L 198.62 -47.85 Q 198.62 -53.11 201.16 -57.29 Q 203.7 -61.48 207.88 -63.92 Q 212.06 -66.36 216.95 -66.36 L 216.95 -66.36 Q 221.93 -66.36 226.12 -63.87 Q 230.3 -61.38 232.79 -57.2 Q 235.28 -53.02 235.28 -47.85 L 235.28 -47.85 L 235.28 -40.14 Q 235.28 -39.76 234.91 -39.76 L 234.91 -39.76 L 224.38 -39.76 Q 224 -39.76 224 -40.14 L 224 -40.14 L 223.91 -47.85 Q 223.91 -51.14 221.84 -53.2 Q 219.77 -55.27 216.95 -55.27 L 216.95 -55.27 Q 214.04 -55.27 211.97 -53.06 Q 209.9 -50.85 209.9 -47.85 L 209.9 -47.85 Q 209.9 -44.74 211.22 -42.68 Q 212.53 -40.61 216.01 -38.73 L 216.01 -38.73 Q 216.48 -38.45 217.84 -37.74 Q 219.21 -37.04 220.81 -36.14 Q 222.4 -35.25 223.67 -34.59 Q 224.94 -33.93 225.22 -33.75 L 225.22 -33.75 Q 229.92 -31.11 232.65 -27.31 Q 235.38 -23.5 235.38 -17.95 L 235.38 -17.95 Q 235.38 -12.6 232.88 -8.32 Q 230.39 -4.04 226.21 -1.55 Q 222.03 0.94 216.95 0.94 Z M 252.95 0 L 242.33 0 Q 241.96 0 241.96 -0.47 L 241.96 -0.47 L 242.14 -65.05 Q 242.14 -65.42 242.52 -65.42 L 242.52 -65.42 L 253.99 -65.42 Q 254.36 -65.42 254.65 -65.05 L 254.65 -65.05 L 263.2 -52.64 L 271.75 -65.05 Q 272.04 -65.42 272.41 -65.42 L 272.41 -65.42 L 283.97 -65.42 Q 284.35 -65.42 284.35 -65.05 L 284.35 -65.05 L 284.54 -0.47 Q 284.54 0 284.16 0 L 284.16 0 L 273.54 0 Q 273.16 0 273.16 -0.47 L 273.16 -0.47 L 273.07 -48.41 L 263.2 -34.12 L 253.42 -48.41 L 253.33 -0.47 Q 253.33 0 252.95 0 L 252.95 0 Z M 303.53 0 L 292.9 0 Q 292.43 0 292.43 -0.47 L 292.43 -0.47 L 292.53 -65.05 Q 292.53 -65.42 292.9 -65.42 L 292.9 -65.42 L 303.43 -65.42 Q 303.81 -65.42 303.81 -65.05 L 303.81 -65.05 L 303.9 -0.47 Q 303.9 0 303.53 0 L 303.53 0 Z M 332.2 0 L 321.57 0 Q 321.2 0 321.2 -0.47 L 321.2 -0.47 L 321.2 -54.05 L 308.98 -54.05 Q 308.51 -54.05 308.51 -54.52 L 308.51 -54.52 L 308.6 -65.05 Q 308.6 -65.42 308.98 -65.42 L 308.98 -65.42 L 344.7 -65.42 Q 345.17 -65.42 345.17 -65.05 L 345.17 -65.05 L 345.17 -54.52 Q 345.17 -54.05 344.79 -54.05 L 344.79 -54.05 L 332.48 -54.05 L 332.57 -0.47 Q 332.57 0 332.2 0 L 332.2 0 Z M 360.77 0 L 350.15 0 Q 349.77 0 349.77 -0.47 L 349.77 -0.47 L 349.87 -65.05 Q 349.87 -65.42 350.34 -65.42 L 350.34 -65.42 L 360.77 -65.42 Q 361.24 -65.42 361.24 -65.05 L 361.24 -65.05 L 361.15 -39.48 L 375.25 -39.48 L 375.25 -65.05 Q 375.25 -65.42 375.62 -65.42 L 375.62 -65.42 L 386.06 -65.42 Q 386.53 -65.42 386.53 -65.05 L 386.53 -65.05 L 386.72 -0.47 Q 386.72 0 386.25 0 L 386.25 0 L 375.72 0 Q 375.25 0 375.25 -0.47 L 375.25 -0.47 L 375.25 -28.11 L 361.15 -28.11 L 361.15 -0.47 Q 361.15 0 360.77 0 L 360.77 0 Z" stroke-linecap="round" />
</g>
</g>
</g>
<g transform="matrix(1.9211538461538462 0 0 1.9211538461538462 639.4630375000004 842.7215943590177)" id="tagline-0f68b8c6-334a-45f6-b2c6-7daa9ebfc481-logo"  >
<g style=""  paint-order="stroke"   >
		<g transform="matrix(1 0 0 1 0 0)" id="tagline-0f68b8c6-334a-45f6-b2c6-7daa9ebfc481-logo-path-0"  >
<path style="stroke: none; stroke-width: 0; stroke-dasharray: none; stroke-linecap: butt; stroke-dashoffset: 0; stroke-linejoin: miter; stroke-miterlimit: 4; fill: rgb(255,255,255); fill-rule: nonzero; opacity: 1;"  paint-order="stroke"  transform=" translate(-321.47, 14.985)" d="M 6.75 0 L 1.94 0 Q 1.72 0 1.72 -0.22 L 1.72 -0.22 L 1.81 -29.76 Q 1.81 -29.93 1.98 -29.93 L 1.98 -29.93 L 15.74 -29.93 Q 15.95 -29.93 15.95 -29.76 L 15.95 -29.76 L 15.95 -24.9 Q 15.95 -24.73 15.78 -24.73 L 15.78 -24.73 L 6.97 -24.73 L 6.97 -18.06 L 15.78 -18.06 Q 15.95 -18.06 15.95 -17.85 L 15.95 -17.85 L 16 -12.99 Q 16 -12.81 15.78 -12.81 L 15.78 -12.81 L 6.97 -12.81 L 6.97 -0.22 Q 6.97 0 6.75 0 L 6.75 0 Z M 26.23 0.43 L 26.23 0.43 Q 23.91 0.43 21.99 -0.75 Q 20.08 -1.94 18.92 -3.89 Q 17.76 -5.85 17.76 -8.21 L 17.76 -8.21 L 17.8 -21.84 Q 17.8 -24.21 18.94 -26.14 Q 20.08 -28.08 22.02 -29.24 Q 23.95 -30.4 26.23 -30.4 L 26.23 -30.4 Q 28.55 -30.4 30.44 -29.24 Q 32.34 -28.08 33.48 -26.14 Q 34.62 -24.21 34.62 -21.84 L 34.62 -21.84 L 34.66 -8.21 Q 34.66 -5.85 33.52 -3.89 Q 32.38 -1.94 30.47 -0.75 Q 28.55 0.43 26.23 0.43 Z M 26.23 -4.77 L 26.23 -4.77 Q 27.52 -4.77 28.49 -5.83 Q 29.45 -6.88 29.45 -8.21 L 29.45 -8.21 L 29.41 -21.84 Q 29.41 -23.26 28.51 -24.25 Q 27.61 -25.24 26.23 -25.24 L 26.23 -25.24 Q 24.9 -25.24 23.95 -24.27 Q 23 -23.31 23 -21.84 L 23 -21.84 L 23 -8.21 Q 23 -6.79 23.95 -5.78 Q 24.9 -4.77 26.23 -4.77 Z M 42.96 0 L 38.1 0 Q 37.93 0 37.93 -0.22 L 37.93 -0.22 L 38.01 -29.76 Q 38.01 -29.93 38.18 -29.93 L 38.18 -29.93 L 46.87 -29.93 Q 49.19 -29.93 51.15 -28.79 Q 53.11 -27.65 54.27 -25.74 Q 55.43 -23.82 55.43 -21.41 L 55.43 -21.41 Q 55.43 -19.82 54.95 -18.55 Q 54.48 -17.29 53.84 -16.4 Q 53.19 -15.52 52.68 -15.09 L 52.68 -15.09 Q 55 -12.51 55 -9.03 L 55 -9.03 L 55.04 -0.22 Q 55.04 0 54.83 0 L 54.83 0 L 49.97 0 Q 49.79 0 49.79 -0.13 L 49.79 -0.13 L 49.79 -9.03 Q 49.79 -10.58 48.7 -11.72 Q 47.6 -12.86 46.01 -12.86 L 46.01 -12.86 L 43.17 -12.86 L 43.13 -0.22 Q 43.13 0 42.96 0 L 42.96 0 Z M 43.17 -24.77 L 43.17 -18.02 L 46.87 -18.02 Q 48.2 -18.02 49.24 -19.01 Q 50.27 -20 50.27 -21.41 L 50.27 -21.41 Q 50.27 -22.79 49.26 -23.78 Q 48.25 -24.77 46.87 -24.77 L 46.87 -24.77 L 43.17 -24.77 Z M 66.31 0.43 L 66.31 0.43 Q 63.98 0.43 62.09 -0.73 Q 60.2 -1.89 59.06 -3.85 Q 57.92 -5.81 57.92 -8.21 L 57.92 -8.21 L 57.92 -21.84 Q 57.92 -24.17 59.06 -26.12 Q 60.2 -28.08 62.11 -29.24 Q 64.03 -30.4 66.31 -30.4 L 66.31 -30.4 Q 68.67 -30.4 70.58 -29.26 Q 72.5 -28.12 73.62 -26.19 Q 74.73 -24.25 74.73 -21.84 L 74.73 -21.84 L 74.73 -19.87 Q 74.73 -19.69 74.52 -19.69 L 74.52 -19.69 L 69.7 -19.69 Q 69.53 -19.69 69.53 -19.87 L 69.53 -19.87 L 69.53 -21.5 Q 69.53 -23.13 68.61 -24.21 Q 67.68 -25.28 66.31 -25.28 L 66.31 -25.28 Q 65.06 -25.28 64.09 -24.25 Q 63.12 -23.22 63.12 -21.84 L 63.12 -21.84 L 63.12 -8.21 Q 63.12 -6.79 64.07 -5.78 Q 65.02 -4.77 66.31 -4.77 L 66.31 -4.77 Q 67.68 -4.77 68.61 -5.76 Q 69.53 -6.75 69.53 -8.21 L 69.53 -8.21 L 69.53 -10.32 L 66.52 -10.32 Q 66.31 -10.32 66.31 -10.54 L 66.31 -10.54 L 66.31 -15.35 Q 66.31 -15.57 66.52 -15.57 L 66.52 -15.57 L 74.56 -15.57 Q 74.73 -15.57 74.73 -15.35 L 74.73 -15.35 L 74.73 -8.21 Q 74.73 -5.81 73.59 -3.85 Q 72.45 -1.89 70.56 -0.73 Q 68.67 0.43 66.31 0.43 Z M 82.86 0 L 78 0 Q 77.79 0 77.79 -0.22 L 77.79 -0.22 L 77.83 -29.76 Q 77.83 -29.93 78 -29.93 L 78 -29.93 L 82.82 -29.93 Q 82.99 -29.93 82.99 -29.76 L 82.99 -29.76 L 83.03 -0.22 Q 83.03 0 82.86 0 L 82.86 0 Z M 91.5 0 L 87.2 0 Q 86.86 0 86.86 -0.3 L 86.86 -0.3 L 86.82 -29.58 Q 86.82 -29.93 87.16 -29.93 L 87.16 -29.93 L 91.03 -29.93 L 98.3 -12.99 L 98.08 -29.58 Q 98.08 -29.93 98.47 -29.93 L 98.47 -29.93 L 102.73 -29.93 Q 102.99 -29.93 102.99 -29.58 L 102.99 -29.58 L 103.03 -0.26 Q 103.03 0 102.81 0 L 102.81 0 L 99.03 0 L 91.59 -15.82 L 91.89 -0.34 Q 91.89 0 91.5 0 L 91.5 0 Z M 114.64 0.43 L 114.64 0.43 Q 112.32 0.43 110.42 -0.73 Q 108.53 -1.89 107.39 -3.85 Q 106.25 -5.81 106.25 -8.21 L 106.25 -8.21 L 106.25 -21.84 Q 106.25 -24.17 107.39 -26.12 Q 108.53 -28.08 110.45 -29.24 Q 112.36 -30.4 114.64 -30.4 L 114.64 -30.4 Q 117 -30.4 118.92 -29.26 Q 120.83 -28.12 121.95 -26.19 Q 123.07 -24.25 123.07 -21.84 L 123.07 -21.84 L 123.07 -19.87 Q 123.07 -19.69 122.85 -19.69 L 122.85 -19.69 L 118.04 -19.69 Q 117.86 -19.69 117.86 -19.87 L 117.86 -19.87 L 117.86 -21.5 Q 117.86 -23.13 116.94 -24.21 Q 116.01 -25.28 114.64 -25.28 L 114.64 -25.28 Q 113.39 -25.28 112.42 -24.25 Q 111.46 -23.22 111.46 -21.84 L 111.46 -21.84 L 111.46 -8.21 Q 111.46 -6.79 112.4 -5.78 Q 113.35 -4.77 114.64 -4.77 L 114.64 -4.77 Q 116.01 -4.77 116.94 -5.76 Q 117.86 -6.75 117.86 -8.21 L 117.86 -8.21 L 117.86 -10.32 L 114.85 -10.32 Q 114.64 -10.32 114.64 -10.54 L 114.64 -10.54 L 114.64 -15.35 Q 114.64 -15.57 114.85 -15.57 L 114.85 -15.57 L 122.89 -15.57 Q 123.07 -15.57 123.07 -15.35 L 123.07 -15.35 L 123.07 -8.21 Q 123.07 -5.81 121.93 -3.85 Q 120.79 -1.89 118.9 -0.73 Q 117 0.43 114.64 0.43 Z M 140.4 -0.04 L 132.7 0 Q 132.48 0 132.48 -0.22 L 132.48 -0.22 L 132.57 -29.76 Q 132.57 -29.93 132.74 -29.93 L 132.74 -29.93 L 140.78 -29.97 Q 143.15 -30.01 145.1 -28.85 Q 147.06 -27.69 148.22 -25.74 Q 149.38 -23.78 149.38 -21.41 L 149.38 -21.41 L 149.38 -9.07 Q 149.38 -6.58 148.18 -4.54 Q 146.97 -2.49 144.95 -1.29 Q 142.93 -0.09 140.4 -0.04 L 140.4 -0.04 Z M 137.77 -24.77 L 137.73 -5.29 L 140.4 -5.29 Q 141.99 -5.29 143.08 -6.41 Q 144.18 -7.53 144.18 -9.07 L 144.18 -9.07 L 144.18 -21.46 Q 144.18 -22.83 143.17 -23.84 Q 142.16 -24.85 140.78 -24.81 L 140.78 -24.81 L 137.77 -24.77 Z M 157.85 0 L 152.99 0 Q 152.78 0 152.78 -0.22 L 152.78 -0.22 L 152.82 -29.76 Q 152.82 -29.93 152.99 -29.93 L 152.99 -29.93 L 157.81 -29.93 Q 157.98 -29.93 157.98 -29.76 L 157.98 -29.76 L 158.03 -0.22 Q 158.03 0 157.85 0 L 157.85 0 Z M 169.68 0.43 L 169.68 0.43 Q 167.36 0.43 165.46 -0.73 Q 163.57 -1.89 162.43 -3.85 Q 161.29 -5.81 161.29 -8.21 L 161.29 -8.21 L 161.29 -21.84 Q 161.29 -24.17 162.43 -26.12 Q 163.57 -28.08 165.49 -29.24 Q 167.4 -30.4 169.68 -30.4 L 169.68 -30.4 Q 172.04 -30.4 173.96 -29.26 Q 175.87 -28.12 176.99 -26.19 Q 178.11 -24.25 178.11 -21.84 L 178.11 -21.84 L 178.11 -19.87 Q 178.11 -19.69 177.89 -19.69 L 177.89 -19.69 L 173.07 -19.69 Q 172.9 -19.69 172.9 -19.87 L 172.9 -19.87 L 172.9 -21.5 Q 172.9 -23.13 171.98 -24.21 Q 171.05 -25.28 169.68 -25.28 L 169.68 -25.28 Q 168.43 -25.28 167.46 -24.25 Q 166.5 -23.22 166.5 -21.84 L 166.5 -21.84 L 166.5 -8.21 Q 166.5 -6.79 167.44 -5.78 Q 168.39 -4.77 169.68 -4.77 L 169.68 -4.77 Q 171.05 -4.77 171.98 -5.76 Q 172.9 -6.75 172.9 -8.21 L 172.9 -8.21 L 172.9 -10.32 L 169.89 -10.32 Q 169.68 -10.32 169.68 -10.54 L 169.68 -10.54 L 169.68 -15.35 Q 169.68 -15.57 169.89 -15.57 L 169.89 -15.57 L 177.93 -15.57 Q 178.11 -15.57 178.11 -15.35 L 178.11 -15.35 L 178.11 -8.21 Q 178.11 -5.81 176.97 -3.85 Q 175.83 -1.89 173.94 -0.73 Q 172.04 0.43 169.68 0.43 Z M 186.23 0 L 181.37 0 Q 181.16 0 181.16 -0.22 L 181.16 -0.22 L 181.2 -29.76 Q 181.2 -29.93 181.37 -29.93 L 181.37 -29.93 L 186.19 -29.93 Q 186.36 -29.93 186.36 -29.76 L 186.36 -29.76 L 186.41 -0.22 Q 186.41 0 186.23 0 L 186.23 0 Z M 199.35 0 L 194.49 0 Q 194.32 0 194.32 -0.22 L 194.32 -0.22 L 194.32 -24.73 L 188.73 -24.73 Q 188.51 -24.73 188.51 -24.94 L 188.51 -24.94 L 188.56 -29.76 Q 188.56 -29.93 188.73 -29.93 L 188.73 -29.93 L 205.07 -29.93 Q 205.28 -29.93 205.28 -29.76 L 205.28 -29.76 L 205.28 -24.94 Q 205.28 -24.73 205.11 -24.73 L 205.11 -24.73 L 199.48 -24.73 L 199.52 -0.22 Q 199.52 0 199.35 0 L 199.35 0 Z M 204.38 -0.22 L 204.38 -0.22 L 209.71 -29.76 Q 209.75 -29.93 209.93 -29.93 L 209.93 -29.93 L 216.16 -29.93 Q 216.33 -29.93 216.38 -29.76 L 216.38 -29.76 L 221.49 -0.22 Q 221.54 0 221.32 0 L 221.32 0 L 216.55 0 Q 216.38 0 216.33 -0.22 L 216.33 -0.22 L 215.86 -3.35 L 210.01 -3.35 L 209.54 -0.22 Q 209.5 0 209.32 0 L 209.32 0 L 204.55 0 Q 204.38 0 204.38 -0.22 Z M 212.81 -20.04 L 210.87 -7.96 L 215 -7.96 L 213.24 -20.04 L 212.98 -21.63 L 212.81 -20.04 Z M 238.26 0 L 224.37 0 Q 224.2 0 224.2 -0.22 L 224.2 -0.22 L 224.24 -29.71 Q 224.24 -29.93 224.46 -29.93 L 224.46 -29.93 L 229.23 -29.93 Q 229.45 -29.93 229.45 -29.71 L 229.45 -29.71 L 229.4 -5.29 L 238.26 -5.29 Q 238.48 -5.29 238.48 -5.07 L 238.48 -5.07 L 238.48 -0.22 Q 238.48 0 238.26 0 L 238.26 0 Z M 253.23 0.43 L 253.23 0.43 Q 250.9 0.43 248.99 -0.75 Q 247.08 -1.94 245.94 -3.89 Q 244.8 -5.85 244.8 -8.21 L 244.8 -8.21 L 244.8 -10.19 Q 244.8 -10.41 245.01 -10.41 L 245.01 -10.41 L 249.83 -10.41 Q 250 -10.41 250 -10.19 L 250 -10.19 L 250 -8.21 Q 250 -6.79 250.95 -5.78 Q 251.89 -4.77 253.23 -4.77 L 253.23 -4.77 Q 254.56 -4.77 255.51 -5.81 Q 256.45 -6.84 256.45 -8.21 L 256.45 -8.21 Q 256.45 -9.8 254.39 -10.97 L 254.39 -10.97 Q 253.7 -11.35 252.24 -12.17 Q 250.78 -12.99 249.49 -13.72 L 249.49 -13.72 Q 247.12 -15.09 245.98 -17.18 Q 244.84 -19.26 244.84 -21.89 L 244.84 -21.89 Q 244.84 -24.3 246 -26.21 Q 247.16 -28.12 249.08 -29.24 Q 250.99 -30.36 253.23 -30.36 L 253.23 -30.36 Q 255.51 -30.36 257.42 -29.22 Q 259.33 -28.08 260.47 -26.17 Q 261.61 -24.25 261.61 -21.89 L 261.61 -21.89 L 261.61 -18.36 Q 261.61 -18.19 261.44 -18.19 L 261.44 -18.19 L 256.62 -18.19 Q 256.45 -18.19 256.45 -18.36 L 256.45 -18.36 L 256.41 -21.89 Q 256.41 -23.39 255.46 -24.34 Q 254.52 -25.28 253.23 -25.28 L 253.23 -25.28 Q 251.89 -25.28 250.95 -24.27 Q 250 -23.26 250 -21.89 L 250 -21.89 Q 250 -20.47 250.6 -19.52 Q 251.21 -18.58 252.8 -17.72 L 252.8 -17.72 Q 253.01 -17.59 253.64 -17.26 Q 254.26 -16.94 254.99 -16.53 Q 255.72 -16.13 256.3 -15.82 Q 256.88 -15.52 257.01 -15.44 L 257.01 -15.44 Q 259.16 -14.23 260.41 -12.49 Q 261.65 -10.75 261.65 -8.21 L 261.65 -8.21 Q 261.65 -5.76 260.52 -3.81 Q 259.38 -1.85 257.46 -0.71 Q 255.55 0.43 253.23 0.43 Z M 272.62 0.43 L 272.62 0.43 Q 270.3 0.43 268.38 -0.75 Q 266.47 -1.94 265.31 -3.89 Q 264.15 -5.85 264.15 -8.21 L 264.15 -8.21 L 264.19 -21.84 Q 264.19 -24.21 265.33 -26.14 Q 266.47 -28.08 268.41 -29.24 Q 270.34 -30.4 272.62 -30.4 L 272.62 -30.4 Q 274.94 -30.4 276.83 -29.24 Q 278.73 -28.08 279.87 -26.14 Q 281 -24.21 281 -21.84 L 281 -21.84 L 281.05 -8.21 Q 281.05 -5.85 279.91 -3.89 Q 278.77 -1.94 276.86 -0.75 Q 274.94 0.43 272.62 0.43 Z M 272.62 -4.77 L 272.62 -4.77 Q 273.91 -4.77 274.88 -5.83 Q 275.84 -6.88 275.84 -8.21 L 275.84 -8.21 L 275.8 -21.84 Q 275.8 -23.26 274.9 -24.25 Q 274 -25.24 272.62 -25.24 L 272.62 -25.24 Q 271.29 -25.24 270.34 -24.27 Q 269.39 -23.31 269.39 -21.84 L 269.39 -21.84 L 269.39 -8.21 Q 269.39 -6.79 270.34 -5.78 Q 271.29 -4.77 272.62 -4.77 Z M 298.38 0 L 284.49 0 Q 284.32 0 284.32 -0.22 L 284.32 -0.22 L 284.36 -29.71 Q 284.36 -29.93 284.57 -29.93 L 284.57 -29.93 L 289.35 -29.93 Q 289.56 -29.93 289.56 -29.71 L 289.56 -29.71 L 289.52 -5.29 L 298.38 -5.29 Q 298.59 -5.29 298.59 -5.07 L 298.59 -5.07 L 298.59 -0.22 Q 298.59 0 298.38 0 L 298.38 0 Z M 308.44 0.43 L 308.44 0.43 Q 306.16 0.43 304.23 -0.75 Q 302.29 -1.94 301.15 -3.91 Q 300.01 -5.89 300.01 -8.26 L 300.01 -8.26 L 300.1 -29.76 Q 300.1 -29.93 300.27 -29.93 L 300.27 -29.93 L 305.09 -29.93 Q 305.26 -29.93 305.26 -29.76 L 305.26 -29.76 L 305.26 -8.26 Q 305.26 -6.79 306.18 -5.78 Q 307.11 -4.77 308.44 -4.77 L 308.44 -4.77 Q 309.81 -4.77 310.74 -5.78 Q 311.66 -6.79 311.66 -8.26 L 311.66 -8.26 L 311.66 -29.76 Q 311.66 -29.93 311.84 -29.93 L 311.84 -29.93 L 316.65 -29.93 Q 316.82 -29.93 316.82 -29.76 L 316.82 -29.76 L 316.91 -8.26 Q 316.91 -5.85 315.77 -3.87 Q 314.63 -1.89 312.72 -0.73 Q 310.8 0.43 308.44 0.43 Z M 329.47 0 L 324.61 0 Q 324.44 0 324.44 -0.22 L 324.44 -0.22 L 324.44 -24.73 L 318.84 -24.73 Q 318.63 -24.73 318.63 -24.94 L 318.63 -24.94 L 318.67 -29.76 Q 318.67 -29.93 318.84 -29.93 L 318.84 -29.93 L 335.19 -29.93 Q 335.4 -29.93 335.4 -29.76 L 335.4 -29.76 L 335.4 -24.94 Q 335.4 -24.73 335.23 -24.73 L 335.23 -24.73 L 329.59 -24.73 L 329.64 -0.22 Q 329.64 0 329.47 0 L 329.47 0 Z M 342.58 0 L 337.72 0 Q 337.51 0 337.51 -0.22 L 337.51 -0.22 L 337.55 -29.76 Q 337.55 -29.93 337.72 -29.93 L 337.72 -29.93 L 342.54 -29.93 Q 342.71 -29.93 342.71 -29.76 L 342.71 -29.76 L 342.75 -0.22 Q 342.75 0 342.58 0 L 342.58 0 Z M 354.49 0.43 L 354.49 0.43 Q 352.17 0.43 350.26 -0.75 Q 348.34 -1.94 347.18 -3.89 Q 346.02 -5.85 346.02 -8.21 L 346.02 -8.21 L 346.06 -21.84 Q 346.06 -24.21 347.2 -26.14 Q 348.34 -28.08 350.28 -29.24 Q 352.21 -30.4 354.49 -30.4 L 354.49 -30.4 Q 356.81 -30.4 358.71 -29.24 Q 360.6 -28.08 361.74 -26.14 Q 362.88 -24.21 362.88 -21.84 L 362.88 -21.84 L 362.92 -8.21 Q 362.92 -5.85 361.78 -3.89 Q 360.64 -1.94 358.73 -0.75 Q 356.81 0.43 354.49 0.43 Z M 354.49 -4.77 L 354.49 -4.77 Q 355.78 -4.77 356.75 -5.83 Q 357.72 -6.88 357.72 -8.21 L 357.72 -8.21 L 357.67 -21.84 Q 357.67 -23.26 356.77 -24.25 Q 355.87 -25.24 354.49 -25.24 L 354.49 -25.24 Q 353.16 -25.24 352.21 -24.27 Q 351.27 -23.31 351.27 -21.84 L 351.27 -21.84 L 351.27 -8.21 Q 351.27 -6.79 352.21 -5.78 Q 353.16 -4.77 354.49 -4.77 Z M 370.88 0 L 366.58 0 Q 366.23 0 366.23 -0.3 L 366.23 -0.3 L 366.19 -29.58 Q 366.19 -29.93 366.53 -29.93 L 366.53 -29.93 L 370.4 -29.93 L 377.67 -12.99 L 377.45 -29.58 Q 377.45 -29.93 377.84 -29.93 L 377.84 -29.93 L 382.1 -29.93 Q 382.36 -29.93 382.36 -29.58 L 382.36 -29.58 L 382.4 -0.26 Q 382.4 0 382.18 0 L 382.18 0 L 378.4 0 L 370.96 -15.82 L 371.26 -0.34 Q 371.26 0 370.88 0 L 370.88 0 Z M 393.45 0.43 L 393.45 0.43 Q 391.13 0.43 389.21 -0.75 Q 387.3 -1.94 386.16 -3.89 Q 385.02 -5.85 385.02 -8.21 L 385.02 -8.21 L 385.02 -10.19 Q 385.02 -10.41 385.24 -10.41 L 385.24 -10.41 L 390.05 -10.41 Q 390.23 -10.41 390.23 -10.19 L 390.23 -10.19 L 390.23 -8.21 Q 390.23 -6.79 391.17 -5.78 Q 392.12 -4.77 393.45 -4.77 L 393.45 -4.77 Q 394.78 -4.77 395.73 -5.81 Q 396.68 -6.84 396.68 -8.21 L 396.68 -8.21 Q 396.68 -9.8 394.61 -10.97 L 394.61 -10.97 Q 393.92 -11.35 392.46 -12.17 Q 391 -12.99 389.71 -13.72 L 389.71 -13.72 Q 387.34 -15.09 386.2 -17.18 Q 385.06 -19.26 385.06 -21.89 L 385.06 -21.89 Q 385.06 -24.3 386.23 -26.21 Q 387.39 -28.12 389.3 -29.24 Q 391.21 -30.36 393.45 -30.36 L 393.45 -30.36 Q 395.73 -30.36 397.64 -29.22 Q 399.56 -28.08 400.7 -26.17 Q 401.84 -24.25 401.84 -21.89 L 401.84 -21.89 L 401.84 -18.36 Q 401.84 -18.19 401.66 -18.19 L 401.66 -18.19 L 396.85 -18.19 Q 396.68 -18.19 396.68 -18.36 L 396.68 -18.36 L 396.63 -21.89 Q 396.63 -23.39 395.69 -24.34 Q 394.74 -25.28 393.45 -25.28 L 393.45 -25.28 Q 392.12 -25.28 391.17 -24.27 Q 390.23 -23.26 390.23 -21.89 L 390.23 -21.89 Q 390.23 -20.47 390.83 -19.52 Q 391.43 -18.58 393.02 -17.72 L 393.02 -17.72 Q 393.24 -17.59 393.86 -17.26 Q 394.48 -16.94 395.21 -16.53 Q 395.94 -16.13 396.52 -15.82 Q 397.11 -15.52 397.23 -15.44 L 397.23 -15.44 Q 399.38 -14.23 400.63 -12.49 Q 401.88 -10.75 401.88 -8.21 L 401.88 -8.21 Q 401.88 -5.76 400.74 -3.81 Q 399.6 -1.85 397.69 -0.71 Q 395.77 0.43 393.45 0.43 Z M 420.41 0 L 415.21 0 Q 415.04 0 414.99 -0.22 L 414.99 -0.22 L 409.92 -29.76 Q 409.88 -29.93 410.05 -29.93 L 410.05 -29.93 L 414.86 -29.93 Q 415.04 -29.93 415.08 -29.76 L 415.08 -29.76 L 417.83 -10.32 L 420.67 -29.76 Q 420.71 -29.93 420.93 -29.93 L 420.93 -29.93 L 424.8 -29.93 Q 424.97 -29.93 425.01 -29.76 L 425.01 -29.76 L 427.81 -10.32 L 430.6 -29.76 Q 430.64 -29.93 430.82 -29.93 L 430.82 -29.93 L 435.59 -29.93 Q 435.81 -29.93 435.76 -29.76 L 435.76 -29.76 L 430.64 -0.22 Q 430.6 -0.13 430.52 -0.06 Q 430.43 0 430.43 0 L 430.43 0 L 425.23 0 Q 425.1 0 425.01 -0.22 L 425.01 -0.22 L 422.82 -15.65 L 420.63 -0.22 Q 420.58 0 420.41 0 L 420.41 0 Z M 443.37 0 L 438.51 0 Q 438.3 0 438.3 -0.22 L 438.3 -0.22 L 438.34 -29.76 Q 438.34 -29.93 438.51 -29.93 L 438.51 -29.93 L 443.33 -29.93 Q 443.5 -29.93 443.5 -29.76 L 443.5 -29.76 L 443.55 -0.22 Q 443.55 0 443.37 0 L 443.37 0 Z M 456.49 0 L 451.63 0 Q 451.46 0 451.46 -0.22 L 451.46 -0.22 L 451.46 -24.73 L 445.87 -24.73 Q 445.65 -24.73 445.65 -24.94 L 445.65 -24.94 L 445.7 -29.76 Q 445.7 -29.93 445.87 -29.93 L 445.87 -29.93 L 462.21 -29.93 Q 462.42 -29.93 462.42 -29.76 L 462.42 -29.76 L 462.42 -24.94 Q 462.42 -24.73 462.25 -24.73 L 462.25 -24.73 L 456.62 -24.73 L 456.66 -0.22 Q 456.66 0 456.49 0 L 456.49 0 Z M 469.56 0 L 464.7 0 Q 464.53 0 464.53 -0.22 L 464.53 -0.22 L 464.57 -29.76 Q 464.57 -29.93 464.79 -29.93 L 464.79 -29.93 L 469.56 -29.93 Q 469.78 -29.93 469.78 -29.76 L 469.78 -29.76 L 469.73 -18.06 L 476.18 -18.06 L 476.18 -29.76 Q 476.18 -29.93 476.35 -29.93 L 476.35 -29.93 L 481.13 -29.93 Q 481.34 -29.93 481.34 -29.76 L 481.34 -29.76 L 481.43 -0.22 Q 481.43 0 481.21 0 L 481.21 0 L 476.4 0 Q 476.18 0 476.18 -0.22 L 476.18 -0.22 L 476.18 -12.86 L 469.73 -12.86 L 469.73 -0.22 Q 469.73 0 469.56 0 L 469.56 0 Z M 496.35 0 L 491.53 0 Q 491.32 0 491.32 -0.22 L 491.32 -0.22 L 491.4 -29.76 Q 491.4 -29.93 491.58 -29.93 L 491.58 -29.93 L 499.83 -29.93 Q 503.79 -29.93 506.09 -27.52 Q 508.39 -25.11 508.39 -20.98 L 508.39 -20.98 Q 508.39 -17.93 507.19 -15.7 Q 505.98 -13.46 504.05 -12.26 Q 502.11 -11.05 499.83 -11.05 L 499.83 -11.05 L 496.56 -11.05 L 496.56 -0.22 Q 496.56 0 496.35 0 L 496.35 0 Z M 496.56 -24.77 L 496.56 -16.25 L 499.83 -16.25 Q 501.21 -16.25 502.22 -17.57 Q 503.23 -18.88 503.23 -20.98 L 503.23 -20.98 Q 503.23 -22.66 502.33 -23.74 Q 501.42 -24.81 499.83 -24.81 L 499.83 -24.81 L 496.56 -24.77 Z M 516 0 L 511.14 0 Q 510.97 0 510.97 -0.22 L 510.97 -0.22 L 511.06 -29.76 Q 511.06 -29.93 511.23 -29.93 L 511.23 -29.93 L 519.91 -29.93 Q 522.24 -29.93 524.19 -28.79 Q 526.15 -27.65 527.31 -25.74 Q 528.47 -23.82 528.47 -21.41 L 528.47 -21.41 Q 528.47 -19.82 528 -18.55 Q 527.52 -17.29 526.88 -16.4 Q 526.23 -15.52 525.72 -15.09 L 525.72 -15.09 Q 528.04 -12.51 528.04 -9.03 L 528.04 -9.03 L 528.08 -0.22 Q 528.08 0 527.87 0 L 527.87 0 L 523.01 0 Q 522.84 0 522.84 -0.13 L 522.84 -0.13 L 522.84 -9.03 Q 522.84 -10.58 521.74 -11.72 Q 520.64 -12.86 519.05 -12.86 L 519.05 -12.86 L 516.22 -12.86 L 516.17 -0.22 Q 516.17 0 516 0 L 516 0 Z M 516.22 -24.77 L 516.22 -18.02 L 519.91 -18.02 Q 521.25 -18.02 522.28 -19.01 Q 523.31 -20 523.31 -21.41 L 523.31 -21.41 Q 523.31 -22.79 522.3 -23.78 Q 521.29 -24.77 519.91 -24.77 L 519.91 -24.77 L 516.22 -24.77 Z M 545.76 0 L 531.87 0 Q 531.7 0 531.7 -0.22 L 531.7 -0.22 L 531.74 -29.76 Q 531.74 -29.93 531.91 -29.93 L 531.91 -29.93 L 545.71 -29.93 Q 545.88 -29.93 545.88 -29.71 L 545.88 -29.71 L 545.88 -24.9 Q 545.88 -24.73 545.71 -24.73 L 545.71 -24.73 L 536.9 -24.73 L 536.9 -18.02 L 545.71 -18.02 Q 545.88 -18.02 545.88 -17.85 L 545.88 -17.85 L 545.93 -12.99 Q 545.93 -12.81 545.76 -12.81 L 545.76 -12.81 L 536.9 -12.81 L 536.9 -5.29 L 545.76 -5.29 Q 545.93 -5.29 545.93 -5.07 L 545.93 -5.07 L 545.93 -0.17 Q 545.93 0 545.76 0 L 545.76 0 Z M 556.98 0.43 L 556.98 0.43 Q 554.61 0.43 552.7 -0.75 Q 550.79 -1.94 549.67 -3.91 Q 548.55 -5.89 548.55 -8.34 L 548.55 -8.34 L 548.59 -21.76 Q 548.59 -24.12 549.69 -26.08 Q 550.79 -28.04 552.7 -29.22 Q 554.61 -30.4 556.98 -30.4 L 556.98 -30.4 Q 559.34 -30.4 561.24 -29.24 Q 563.13 -28.08 564.25 -26.12 Q 565.36 -24.17 565.36 -21.76 L 565.36 -21.76 L 565.36 -19.78 Q 565.36 -19.61 565.19 -19.61 L 565.19 -19.61 L 560.38 -19.61 Q 560.2 -19.61 560.2 -19.78 L 560.2 -19.78 L 560.2 -21.76 Q 560.2 -23.18 559.28 -24.21 Q 558.36 -25.24 556.98 -25.24 L 556.98 -25.24 Q 555.43 -25.24 554.61 -24.19 Q 553.8 -23.13 553.8 -21.76 L 553.8 -21.76 L 553.8 -8.34 Q 553.8 -6.75 554.72 -5.76 Q 555.65 -4.77 556.98 -4.77 L 556.98 -4.77 Q 558.36 -4.77 559.28 -5.87 Q 560.2 -6.97 560.2 -8.34 L 560.2 -8.34 L 560.2 -10.32 Q 560.2 -10.49 560.38 -10.49 L 560.38 -10.49 L 565.24 -10.49 Q 565.41 -10.49 565.41 -10.32 L 565.41 -10.32 L 565.41 -8.34 Q 565.41 -5.89 564.27 -3.91 Q 563.13 -1.94 561.24 -0.75 Q 559.34 0.43 556.98 0.43 Z M 573.62 0 L 568.76 0 Q 568.55 0 568.55 -0.22 L 568.55 -0.22 L 568.59 -29.76 Q 568.59 -29.93 568.76 -29.93 L 568.76 -29.93 L 573.58 -29.93 Q 573.75 -29.93 573.75 -29.76 L 573.75 -29.76 L 573.79 -0.22 Q 573.79 0 573.62 0 L 573.62 0 Z M 584.89 0.43 L 584.89 0.43 Q 582.56 0.43 580.65 -0.75 Q 578.74 -1.94 577.6 -3.89 Q 576.46 -5.85 576.46 -8.21 L 576.46 -8.21 L 576.46 -10.19 Q 576.46 -10.41 576.67 -10.41 L 576.67 -10.41 L 581.49 -10.41 Q 581.66 -10.41 581.66 -10.19 L 581.66 -10.19 L 581.66 -8.21 Q 581.66 -6.79 582.61 -5.78 Q 583.55 -4.77 584.89 -4.77 L 584.89 -4.77 Q 586.22 -4.77 587.17 -5.81 Q 588.11 -6.84 588.11 -8.21 L 588.11 -8.21 Q 588.11 -9.8 586.05 -10.97 L 586.05 -10.97 Q 585.36 -11.35 583.9 -12.17 Q 582.44 -12.99 581.15 -13.72 L 581.15 -13.72 Q 578.78 -15.09 577.64 -17.18 Q 576.5 -19.26 576.5 -21.89 L 576.5 -21.89 Q 576.5 -24.3 577.66 -26.21 Q 578.82 -28.12 580.74 -29.24 Q 582.65 -30.36 584.89 -30.36 L 584.89 -30.36 Q 587.17 -30.36 589.08 -29.22 Q 590.99 -28.08 592.13 -26.17 Q 593.27 -24.25 593.27 -21.89 L 593.27 -21.89 L 593.27 -18.36 Q 593.27 -18.19 593.1 -18.19 L 593.1 -18.19 L 588.28 -18.19 Q 588.11 -18.19 588.11 -18.36 L 588.11 -18.36 L 588.07 -21.89 Q 588.07 -23.39 587.12 -24.34 Q 586.18 -25.28 584.89 -25.28 L 584.89 -25.28 Q 583.55 -25.28 582.61 -24.27 Q 581.66 -23.26 581.66 -21.89 L 581.66 -21.89 Q 581.66 -20.47 582.26 -19.52 Q 582.87 -18.58 584.46 -17.72 L 584.46 -17.72 Q 584.67 -17.59 585.29 -17.26 Q 585.92 -16.94 586.65 -16.53 Q 587.38 -16.13 587.96 -15.82 Q 588.54 -15.52 588.67 -15.44 L 588.67 -15.44 Q 590.82 -14.23 592.07 -12.49 Q 593.31 -10.75 593.31 -8.21 L 593.31 -8.21 Q 593.31 -5.76 592.17 -3.81 Q 591.04 -1.85 589.12 -0.71 Q 587.21 0.43 584.89 0.43 Z M 601.4 0 L 596.54 0 Q 596.32 0 596.32 -0.22 L 596.32 -0.22 L 596.37 -29.76 Q 596.37 -29.93 596.54 -29.93 L 596.54 -29.93 L 601.36 -29.93 Q 601.53 -29.93 601.53 -29.76 L 601.53 -29.76 L 601.57 -0.22 Q 601.57 0 601.4 0 L 601.4 0 Z M 613.31 0.43 L 613.31 0.43 Q 610.99 0.43 609.07 -0.75 Q 607.16 -1.94 606 -3.89 Q 604.84 -5.85 604.84 -8.21 L 604.84 -8.21 L 604.88 -21.84 Q 604.88 -24.21 606.02 -26.14 Q 607.16 -28.08 609.1 -29.24 Q 611.03 -30.4 613.31 -30.4 L 613.31 -30.4 Q 615.63 -30.4 617.52 -29.24 Q 619.42 -28.08 620.55 -26.14 Q 621.69 -24.21 621.69 -21.84 L 621.69 -21.84 L 621.74 -8.21 Q 621.74 -5.85 620.6 -3.89 Q 619.46 -1.94 617.54 -0.75 Q 615.63 0.43 613.31 0.43 Z M 613.31 -4.77 L 613.31 -4.77 Q 614.6 -4.77 615.57 -5.83 Q 616.53 -6.88 616.53 -8.21 L 616.53 -8.21 L 616.49 -21.84 Q 616.49 -23.26 615.59 -24.25 Q 614.69 -25.24 613.31 -25.24 L 613.31 -25.24 Q 611.98 -25.24 611.03 -24.27 Q 610.08 -23.31 610.08 -21.84 L 610.08 -21.84 L 610.08 -8.21 Q 610.08 -6.79 611.03 -5.78 Q 611.98 -4.77 613.31 -4.77 Z M 629.69 0 L 625.39 0 Q 625.05 0 625.05 -0.3 L 625.05 -0.3 L 625.01 -29.58 Q 625.01 -29.93 625.35 -29.93 L 625.35 -29.93 L 629.22 -29.93 L 636.49 -12.99 L 636.27 -29.58 Q 636.27 -29.93 636.66 -29.93 L 636.66 -29.93 L 640.92 -29.93 Q 641.17 -29.93 641.17 -29.58 L 641.17 -29.58 L 641.22 -0.26 Q 641.22 0 641 0 L 641 0 L 637.22 0 L 629.78 -15.82 L 630.08 -0.34 Q 630.08 0 629.69 0 L 629.69 0 Z" stroke-linecap="round" />
</g>
</g>
</g>
</svg>